<svg width="99" height="30" viewBox="0 0 99 30" fill="none" xmlns="http://www.w3.org/2000/svg">
<path d="M0.762573 1.69406H21.2746V7.61406H15.0986V29.1821H8.05857V7.61406H2.52257L0.762573 1.69406Z" fill="#0C51D8"/>
<path d="M31.9028 17.6941L29.5348 29.1821H23.1348L19.7748 12.1901L17.5668 8.35006H24.9588L26.6548 20.8621L28.7348 8.35006H35.1028L37.1828 20.8621L38.8788 8.35006H44.7988L40.7028 29.1821H34.3028L31.9028 17.6941Z" fill="#0C51D8"/>
<path d="M51.5163 21.0861V22.0781C51.5163 22.7607 51.7937 23.2621 52.3483 23.5821C52.9243 23.9021 53.6603 24.0621 54.5563 24.0621C55.4523 24.0621 56.1137 23.8701 56.5403 23.4861C56.967 23.1021 57.319 22.6327 57.5963 22.0781L63.7723 23.3581C63.2817 25.5767 62.311 27.1767 60.8603 28.1581C59.431 29.1607 57.3297 29.6621 54.5563 29.6621C53.2337 29.6621 52.007 29.5234 50.8763 29.2461C49.767 28.9901 48.807 28.5954 47.9963 28.0621C47.1857 27.5501 46.5563 26.8994 46.1083 26.1101C45.6603 25.3421 45.4363 24.4354 45.4363 23.3901V14.1421C45.4363 13.0967 45.6603 12.1901 46.1083 11.4221C46.5563 10.6327 47.1857 9.98206 47.9963 9.47006C48.807 8.93673 49.767 8.54206 50.8763 8.28606C52.007 8.00873 53.2337 7.87006 54.5563 7.87006C55.879 7.87006 57.095 8.00873 58.2043 8.28606C59.335 8.54206 60.3057 8.93673 61.1163 9.47006C61.927 9.98206 62.5563 10.6327 63.0043 11.4221C63.4523 12.1901 63.6763 13.0967 63.6763 14.1421V21.0861H51.5163ZM51.5163 15.9661H57.5963V15.4541C57.5963 14.7714 57.3083 14.2701 56.7323 13.9501C56.1777 13.6301 55.4523 13.4701 54.5563 13.4701C53.6603 13.4701 52.9243 13.6301 52.3483 13.9501C51.7937 14.2701 51.5163 14.7714 51.5163 15.4541V15.9661Z" fill="#0C51D8"/>
<path d="M71.9851 21.0861V22.0781C71.9851 22.7607 72.2624 23.2621 72.8171 23.5821C73.3931 23.9021 74.1291 24.0621 75.0251 24.0621C75.9211 24.0621 76.5824 23.8701 77.0091 23.4861C77.4357 23.1021 77.7877 22.6327 78.0651 22.0781L84.2411 23.3581C83.7504 25.5767 82.7797 27.1767 81.3291 28.1581C79.8997 29.1607 77.7984 29.6621 75.0251 29.6621C73.7024 29.6621 72.4757 29.5234 71.3451 29.2461C70.2357 28.9901 69.2757 28.5954 68.4651 28.0621C67.6544 27.5501 67.0251 26.8994 66.5771 26.1101C66.1291 25.3421 65.9051 24.4354 65.9051 23.3901V14.1421C65.9051 13.0967 66.1291 12.1901 66.5771 11.4221C67.0251 10.6327 67.6544 9.98206 68.4651 9.47006C69.2757 8.93673 70.2357 8.54206 71.3451 8.28606C72.4757 8.00873 73.7024 7.87006 75.0251 7.87006C76.3477 7.87006 77.5637 8.00873 78.6731 8.28606C79.8037 8.54206 80.7744 8.93673 81.5851 9.47006C82.3957 9.98206 83.0251 10.6327 83.4731 11.4221C83.9211 12.1901 84.1451 13.0967 84.1451 14.1421V21.0861H71.9851ZM71.9851 15.9661H78.0651V15.4541C78.0651 14.7714 77.7771 14.2701 77.2011 13.9501C76.6464 13.6301 75.9211 13.4701 75.0251 13.4701C74.1291 13.4701 73.3931 13.6301 72.8171 13.9501C72.2624 14.2701 71.9851 14.7714 71.9851 15.4541V15.9661Z" fill="#0C51D8"/>
<path d="M92.7738 0.862061V8.35006H97.8938L98.8538 13.9501H92.7738V20.8941C92.7738 21.9607 92.9872 22.6754 93.4138 23.0381C93.8618 23.4007 94.5658 23.5821 95.5258 23.5821H98.5338V29.1821H94.0218C91.5045 29.1821 89.6485 28.5954 88.4538 27.4221C87.2805 26.2701 86.6938 24.5847 86.6938 22.3661V1.50206L92.7738 0.862061Z" fill="#0C51D8"/>
</svg>
