<svg width="25" height="25" viewBox="0 0 25 25" fill="none" xmlns="http://www.w3.org/2000/svg">
<path fill-rule="evenodd" clip-rule="evenodd" d="M12.5502 2.9072C10.1212 2.9072 7.73323 3.0852 5.39823 3.4282C3.42023 3.7182 2.05023 5.4522 2.05023 7.3982V13.4162C2.05023 15.3622 3.42023 17.0962 5.39823 17.3862C6.27523 17.5152 7.15923 17.6202 8.05023 17.7022V21.6572C8.05036 21.8054 8.09442 21.9503 8.17684 22.0735C8.25926 22.1967 8.37635 22.2928 8.51331 22.3495C8.65027 22.4062 8.80097 22.421 8.94637 22.3922C9.09177 22.3633 9.22534 22.292 9.33023 22.1872L13.5142 18.0042C13.5853 17.9342 13.6805 17.8941 13.7802 17.8922C15.7862 17.8422 17.7622 17.6722 19.7022 17.3862C21.6802 17.0962 23.0502 15.3632 23.0502 13.4162V7.3982C23.0502 5.4512 21.6802 3.7182 19.7022 3.4282C17.3341 3.0806 14.9437 2.90647 12.5502 2.9072ZM8.80023 9.2822C8.50186 9.2822 8.21572 9.40072 8.00474 9.6117C7.79376 9.82268 7.67523 10.1088 7.67523 10.4072C7.67523 10.7056 7.79376 10.9917 8.00474 11.2027C8.21572 11.4137 8.50186 11.5322 8.80023 11.5322C9.0986 11.5322 9.38475 11.4137 9.59573 11.2027C9.80671 10.9917 9.92523 10.7056 9.92523 10.4072C9.92523 10.1088 9.80671 9.82268 9.59573 9.6117C9.38475 9.40072 9.0986 9.2822 8.80023 9.2822ZM11.4252 10.4072C11.4252 10.1088 11.5438 9.82268 11.7547 9.6117C11.9657 9.40072 12.2519 9.2822 12.5502 9.2822C12.8486 9.2822 13.1347 9.40072 13.3457 9.6117C13.5567 9.82268 13.6752 10.1088 13.6752 10.4072C13.6752 10.7056 13.5567 10.9917 13.3457 11.2027C13.1347 11.4137 12.8486 11.5322 12.5502 11.5322C12.2519 11.5322 11.9657 11.4137 11.7547 11.2027C11.5438 10.9917 11.4252 10.7056 11.4252 10.4072ZM16.3002 9.2822C16.0019 9.2822 15.7157 9.40072 15.5047 9.6117C15.2938 9.82268 15.1752 10.1088 15.1752 10.4072C15.1752 10.7056 15.2938 10.9917 15.5047 11.2027C15.7157 11.4137 16.0019 11.5322 16.3002 11.5322C16.5986 11.5322 16.8847 11.4137 17.0957 11.2027C17.3067 10.9917 17.4252 10.7056 17.4252 10.4072C17.4252 10.1088 17.3067 9.82268 17.0957 9.6117C16.8847 9.40072 16.5986 9.2822 16.3002 9.2822Z" fill="#7BB9DC"/>
</svg>
