<svg width="25" height="25" viewBox="0 0 25 25" fill="none" xmlns="http://www.w3.org/2000/svg">
<path d="M12.3453 20.8185L12.3378 20.8157L12.3144 20.8044C12.1771 20.738 12.0409 20.6699 11.9058 20.6001C10.2822 19.7521 8.7648 18.7559 7.37891 17.6282C4.92451 15.6154 2.32397 12.6285 2.32397 8.94974C2.32397 6.20474 4.95224 4.02787 8.12451 4.02787C9.00638 4.02407 9.87787 4.19506 10.6742 4.52812C11.4705 4.86118 12.1711 5.34774 12.724 5.95162C13.2769 5.34762 13.9777 4.86098 14.7742 4.52792C15.5708 4.19485 16.4425 4.02393 17.3245 4.02787C20.4957 4.02787 23.124 6.20474 23.124 8.94974C23.124 12.6294 20.5234 15.6163 18.069 17.6272C16.6832 18.755 15.1658 19.7512 13.5421 20.5991C13.4071 20.6693 13.2709 20.7377 13.1336 20.8044L13.1101 20.8157L13.1026 20.8194L13.0994 20.8204C12.9838 20.8742 12.8549 20.9024 12.724 20.9024C12.5931 20.9024 12.4642 20.8742 12.3485 20.8204L12.3453 20.8185Z" fill="#FA6F6F"/>
</svg>
