<svg width="44" height="44" viewBox="0 0 44 44" fill="none" xmlns="http://www.w3.org/2000/svg">
  <rect width="44" height="44" rx="22" fill="#1383EB" />
  <path fill-rule="evenodd" clip-rule="evenodd"
    d="M17.5 16C17.5 14.8065 17.9741 13.6619 18.818 12.818C19.6619 11.9741 20.8065 11.5 22 11.5C23.1934 11.5 24.338 11.9741 25.182 12.818C26.0259 13.6619 26.5 14.8065 26.5 16C26.5 17.1935 26.0259 18.3381 25.182 19.182C24.338 20.0259 23.1934 20.5 22 20.5C20.8065 20.5 19.6619 20.0259 18.818 19.182C17.9741 18.3381 17.5 17.1935 17.5 16ZM13.751 30.105C13.7847 27.9395 14.6686 25.8741 16.2119 24.3546C17.7553 22.8351 19.8342 21.9834 22 21.9834C24.1658 21.9834 26.2447 22.8351 27.788 24.3546C29.3313 25.8741 30.2153 27.9395 30.249 30.105C30.2516 30.2508 30.2116 30.3942 30.134 30.5176C30.0564 30.641 29.9445 30.7392 29.812 30.8C27.3611 31.9237 24.6961 32.5037 22 32.5C19.214 32.5 16.567 31.892 14.188 30.8C14.0555 30.7392 13.9435 30.641 13.8659 30.5176C13.7883 30.3942 13.7484 30.2508 13.751 30.105Z"
    fill="white" />
</svg>